<svg width="99" height="245" viewBox="0 0 99 245" fill="none" xmlns="http://www.w3.org/2000/svg">
<path d="M21.5781 48.8533C16.6017 42.2669 13.2731 31.6761 15.3493 23.3715C18.215 11.9084 32.7187 5.88796 43.2848 4.87361C51.3656 4.09786 58.7651 4.68734 64.8028 10.725C70.585 16.5072 72.6391 24.6342 72.5417 32.526C72.3872 45.0345 60.1845 59.2386 46.8711 57.1584C36.191 55.4897 21.8113 47.7041 19.8793 36.1124" stroke="#E53D7D" stroke-width="8" stroke-linecap="round" stroke-linejoin="round"/>
<path d="M43.6623 91.3229C38.4816 98.2305 33.1305 105.498 27.1464 111.708C22.8163 116.202 18.7324 120.667 14.8774 125.582C13.1177 127.825 8.93161 131.435 8.93161 134.595C8.93161 140.81 55.676 131.126 61.5467 129.546C67.1021 128.05 72.7383 127.758 78.393 126.95C84.5587 126.069 74.9668 117.677 73.8629 116.238C67.5628 108.027 61.6368 99.8278 54.7044 92.1251C52.6113 89.7994 49.223 86.3058 47.9093 83.6783" stroke="#E53D7D" stroke-width="8" stroke-linecap="round" stroke-linejoin="round"/>
<path d="M15.6324 181.358C15.6324 191.256 15.3023 201.038 14.3583 210.898C13.7359 217.399 11.655 223.965 11.3854 230.434C11.2946 232.613 11.1555 239.054 13.3673 240.344C14.7994 241.179 17.9202 240.698 19.3131 240.627C26.5538 240.261 33.8042 239.619 41.0198 238.928C53.9738 237.688 66.8778 234.857 79.8559 234.115C84.1391 233.87 88.4646 234.312 92.7383 234.021C96.7018 233.751 91.9279 227.249 91.417 225.527C86.3488 208.445 93.5434 186.892 82.3568 171.638C80.0822 168.536 78.3292 168.38 74.2404 169.184C65.3393 170.935 57.0406 172.459 47.9093 172.865C33.2892 173.514 19.0674 174.194 4.59027 176.262" stroke="#E53D7D" stroke-width="8" stroke-linecap="round" stroke-linejoin="round"/>
</svg>
